<?xml version="1.0" encoding="UTF-8"?>
<!-- AI伴伴 图标集 · 所有图标均为SVG矢量，可在Figma中自由缩放和修改颜色 -->
<svg width="440" height="320" viewBox="0 0 440 320"
     xmlns="http://www.w3.org/2000/svg">
  <title>AI伴伴 图标集</title>
  <rect width="440" height="320" fill="#FAFAFA"/><text x="220" y="36" font-size="16" fill="#1A1A2E" font-weight="700" text-anchor="middle" font-family="-apple-system,sans-serif">AI伴伴 · 图标集</text><rect x="28" y="64" width="64" height="60" rx="10" fill="white" stroke="#F0E4EA" stroke-width="1"/><g transform="translate(48,76)"><g transform="translate(0,0) scale(1.0)"><path d="M15 18l-6-6 6-6" fill="none" stroke="#FF6B9D" stroke-width="1.8" stroke-linecap="round" stroke-linejoin="round"/></g></g><text x="60" y="114" font-size="9" fill="#9CA3AF" text-anchor="middle" font-family="-apple-system,sans-serif">back</text><rect x="108" y="64" width="64" height="60" rx="10" fill="white" stroke="#F0E4EA" stroke-width="1"/><g transform="translate(128,76)"><g transform="translate(0,0) scale(1.0)"><path d="M20.84 4.61a5.5 5.5 0 0 0-7.78 0L12 5.67l-1.06-1.06a5.5 5.5 0 0 0-7.78 7.78l1.06 1.06L12 21.23l7.78-7.78 1.06-1.06a5.5 5.5 0 0 0 0-7.78z" fill="none" stroke="#FF6B9D" stroke-width="1.8" stroke-linecap="round" stroke-linejoin="round"/></g></g><text x="140" y="114" font-size="9" fill="#9CA3AF" text-anchor="middle" font-family="-apple-system,sans-serif">heart</text><rect x="188" y="64" width="64" height="60" rx="10" fill="white" stroke="#F0E4EA" stroke-width="1"/><g transform="translate(208,76)"><g transform="translate(0,0) scale(1.0)"><path d="M20.84 4.61a5.5 5.5 0 0 0-7.78 0L12 5.67l-1.06-1.06a5.5 5.5 0 0 0-7.78 7.78l1.06 1.06L12 21.23l7.78-7.78 1.06-1.06a5.5 5.5 0 0 0 0-7.78z" fill="#FF6B9D" stroke="#FF6B9D" stroke-width="1.8" stroke-linecap="round" stroke-linejoin="round"/></g></g><text x="220" y="114" font-size="9" fill="#9CA3AF" text-anchor="middle" font-family="-apple-system,sans-serif">heart-filled</text><rect x="268" y="64" width="64" height="60" rx="10" fill="white" stroke="#F0E4EA" stroke-width="1"/><g transform="translate(288,76)"><g transform="translate(0,0) scale(1.0)"><path d="M21 15a2 2 0 0 1-2 2H7l-4 4V5a2 2 0 0 1 2-2h14a2 2 0 0 1 2 2z" fill="none" stroke="#FF6B9D" stroke-width="1.8" stroke-linecap="round" stroke-linejoin="round"/></g></g><text x="300" y="114" font-size="9" fill="#9CA3AF" text-anchor="middle" font-family="-apple-system,sans-serif">chat</text><rect x="348" y="64" width="64" height="60" rx="10" fill="white" stroke="#F0E4EA" stroke-width="1"/><g transform="translate(368,76)"><g transform="translate(0,0) scale(1.0)"><path d="M20 21v-2a4 4 0 0 0-4-4H8a4 4 0 0 0-4 4v2M12 11a4 4 0 1 0 0-8 4 4 0 0 0 0 8z" fill="none" stroke="#FF6B9D" stroke-width="1.8" stroke-linecap="round" stroke-linejoin="round"/></g></g><text x="380" y="114" font-size="9" fill="#9CA3AF" text-anchor="middle" font-family="-apple-system,sans-serif">user</text><rect x="28" y="144" width="64" height="60" rx="10" fill="white" stroke="#F0E4EA" stroke-width="1"/><g transform="translate(48,156)"><g transform="translate(0,0) scale(1.0)"><path d="M12 2l3.09 6.26L22 9.27l-5 4.87 1.18 6.88L12 17.77l-6.18 3.25L7 14.14 2 9.27l6.91-1.01L12 2z" fill="none" stroke="#FF6B9D" stroke-width="1.8" stroke-linecap="round" stroke-linejoin="round"/></g></g><text x="60" y="194" font-size="9" fill="#9CA3AF" text-anchor="middle" font-family="-apple-system,sans-serif">star</text><rect x="108" y="144" width="64" height="60" rx="10" fill="white" stroke="#F0E4EA" stroke-width="1"/><g transform="translate(128,156)"><g transform="translate(0,0) scale(1.0)"><path d="M12 2l3.09 6.26L22 9.27l-5 4.87 1.18 6.88L12 17.77l-6.18 3.25L7 14.14 2 9.27l6.91-1.01L12 2z" fill="#FFC107" stroke="#FFC107" stroke-width="1.8" stroke-linecap="round" stroke-linejoin="round"/></g></g><text x="140" y="194" font-size="9" fill="#9CA3AF" text-anchor="middle" font-family="-apple-system,sans-serif">star-filled</text><rect x="188" y="144" width="64" height="60" rx="10" fill="white" stroke="#F0E4EA" stroke-width="1"/><g transform="translate(208,156)"><g transform="translate(0,0) scale(1.0)"><path d="M19 11H5a2 2 0 0 0-2 2v7a2 2 0 0 0 2 2h14a2 2 0 0 0 2-2v-7a2 2 0 0 0-2-2zM7 11V7a5 5 0 0 1 10 0v4" fill="none" stroke="#9CA3AF" stroke-width="1.8" stroke-linecap="round" stroke-linejoin="round"/></g></g><text x="220" y="194" font-size="9" fill="#9CA3AF" text-anchor="middle" font-family="-apple-system,sans-serif">lock</text><rect x="268" y="144" width="64" height="60" rx="10" fill="white" stroke="#F0E4EA" stroke-width="1"/><g transform="translate(288,156)"><g transform="translate(0,0) scale(1.0)"><path d="M5 3l14 9-14 9V3z" fill="#FF6B9D" stroke="#FF6B9D" stroke-width="1.8" stroke-linecap="round" stroke-linejoin="round"/></g></g><text x="300" y="194" font-size="9" fill="#9CA3AF" text-anchor="middle" font-family="-apple-system,sans-serif">play</text><rect x="348" y="144" width="64" height="60" rx="10" fill="white" stroke="#F0E4EA" stroke-width="1"/><g transform="translate(368,156)"><g transform="translate(0,0) scale(1.0)"><path d="M20 12v10H4V12M22 7H2v5h20V7zM12 22V7M12 7H7.5a2.5 2.5 0 0 1 0-5C11 2 12 7 12 7zM12 7h4.5a2.5 2.5 0 0 0 0-5C13 2 12 7 12 7z" fill="none" stroke="#FF6B9D" stroke-width="1.8" stroke-linecap="round" stroke-linejoin="round"/></g></g><text x="380" y="194" font-size="9" fill="#9CA3AF" text-anchor="middle" font-family="-apple-system,sans-serif">gift</text><rect x="28" y="224" width="64" height="60" rx="10" fill="white" stroke="#F0E4EA" stroke-width="1"/><g transform="translate(48,236)"><circle cx="5" cy="12" r="2.5" fill="#565C7A" stroke="none" stroke-width="1"/><circle cx="12" cy="12" r="2.5" fill="#565C7A" stroke="none" stroke-width="1"/><circle cx="19" cy="12" r="2.5" fill="#565C7A" stroke="none" stroke-width="1"/></g><text x="60" y="274" font-size="9" fill="#9CA3AF" text-anchor="middle" font-family="-apple-system,sans-serif">more</text><rect x="108" y="224" width="64" height="60" rx="10" fill="white" stroke="#F0E4EA" stroke-width="1"/><g transform="translate(128,236)"><g transform="translate(0,0) scale(1.0)"><path d="M22 2L11 13M22 2l-7 20-4-9-9-4 20-7z" fill="none" stroke="#FF6B9D" stroke-width="1.8" stroke-linecap="round" stroke-linejoin="round"/></g></g><text x="140" y="274" font-size="9" fill="#9CA3AF" text-anchor="middle" font-family="-apple-system,sans-serif">send</text><rect x="188" y="224" width="64" height="60" rx="10" fill="white" stroke="#F0E4EA" stroke-width="1"/><g transform="translate(208,236)"><g transform="translate(0,0) scale(1.0)"><path d="M20 6L9 17l-5-5" fill="none" stroke="#FF6B9D" stroke-width="1.8" stroke-linecap="round" stroke-linejoin="round"/></g></g><text x="220" y="274" font-size="9" fill="#9CA3AF" text-anchor="middle" font-family="-apple-system,sans-serif">check</text><rect x="268" y="224" width="64" height="60" rx="10" fill="white" stroke="#F0E4EA" stroke-width="1"/><g transform="translate(288,236)"><g transform="translate(0,0) scale(1.0)"><path d="M9 18l6-6-6-6" fill="none" stroke="#9CA3AF" stroke-width="1.8" stroke-linecap="round" stroke-linejoin="round"/></g></g><text x="300" y="274" font-size="9" fill="#9CA3AF" text-anchor="middle" font-family="-apple-system,sans-serif">chevron-right</text>
</svg>