<?xml version="1.0" encoding="UTF-8"?>
<!-- AI情感陪伴App · 01 引导页 · 390x844px · 可直接导入Figma -->
<svg width="390" height="844" viewBox="0 0 390 844"
     xmlns="http://www.w3.org/2000/svg"
     xmlns:xlink="http://www.w3.org/1999/xlink">
  <title>01 引导页</title>
  <desc>AI情感陪伴App 设计稿 - 01 引导页 - 导入Figma后所有元素均可编辑</desc>
  <g id="bg"><rect x="0" y="0" width="390" height="844" fill="#FFF8FA" rx="0" stroke="none" stroke-width="1"/></g><g id="deco"><circle cx="-30" cy="120" r="140" fill="#FFE0EC" stroke="none" stroke-width="1" opacity="0.35"/><circle cx="420" cy="680" r="160" fill="#FFE0EC" stroke="none" stroke-width="1" opacity="0.28"/></g><g id="status-bar"><rect x="0" y="0" width="390" height="44" fill="#FFF8FA" rx="0" stroke="none" stroke-width="1"/><text x="20" y="30" font-size="15" fill="#1A1A2E" font-weight="700" text-anchor="start" font-family="-apple-system,PingFangSC,Helvetica,sans-serif" dominant-baseline="auto">9:41</text><path transform="translate(310,10)" d="M1.5 8.5a10 10 0 0 1 11.5 0M4 11.5a6 6 0 0 1 6.5 0M7 14a2 2 0 0 1 2.5 0" fill="none" stroke="#1A1A2E" stroke-width="1.5" stroke-linecap="round" stroke-linejoin="round"/><circle cx="316" cy="31" r="3" fill="#1A1A2E" stroke="none" stroke-width="1"/><rect x="332" y="19" width="22" height="11" fill="none" rx="2" stroke="#1A1A2E" stroke-width="1.5"/><rect x="354" y="21" width="2.5" height="7" fill="#1A1A2E" rx="1" stroke="none" stroke-width="1"/><rect x="333.5" y="20.5" width="15" height="8" fill="#1A1A2E" rx="1.5" stroke="none" stroke-width="1"/></g><g id="logo-area"><circle cx="195" cy="138" r="44" fill="#FF6B9D" stroke="none" stroke-width="1"/><text x="195" y="143" font-size="22" fill="#FFFFFF" font-weight="700" text-anchor="middle" font-family="-apple-system,PingFangSC,Helvetica,sans-serif" dominant-baseline="auto">AI</text><text x="195" y="202" font-size="30" fill="#1A1A2E" font-weight="700" text-anchor="middle" font-family="-apple-system,PingFangSC,Helvetica,sans-serif" dominant-baseline="auto">AI伴伴</text><text x="195" y="228" font-size="14" fill="#9CA3AF" font-weight="400" text-anchor="middle" font-family="-apple-system,PingFangSC,Helvetica,sans-serif" dominant-baseline="auto">懂你的那个她，一直在这里</text></g><g id="illustration"><rect x="40" y="258" width="310" height="290" fill="#FFE0EC" rx="24" stroke="none" stroke-width="1"/><circle cx="195" cy="378" r="66" fill="#FF6B9D" stroke="none" stroke-width="1" opacity="0.2"/><circle cx="195" cy="378" r="46" fill="#FF6B9D" stroke="none" stroke-width="1" opacity="0.3"/><text x="195" y="383" font-size="13" fill="#9CA3AF" font-weight="400" text-anchor="middle" font-family="-apple-system,PingFangSC,Helvetica,sans-serif" dominant-baseline="auto">角色立绘区域</text><text x="195" y="403" font-size="11" fill="#9CA3AF" font-weight="400" text-anchor="middle" font-family="-apple-system,PingFangSC,Helvetica,sans-serif" dominant-baseline="auto">（替换为实际角色插图）</text></g><g id="pagination"><rect x="167" y="572" width="20" height="8" fill="#FF6B9D" rx="4" stroke="none" stroke-width="1"/><circle cx="199" cy="576" r="4" fill="#FFE0EC" stroke="none" stroke-width="1"/><circle cx="211" cy="576" r="4" fill="#FFE0EC" stroke="none" stroke-width="1"/></g><g id="cta"><g id="btn-primary"><rect x="24" y="598" width="342" height="52" fill="#FF6B9D" rx="14" stroke="none" stroke-width="1"/><text x="195" y="630" font-size="16" fill="#FFFFFF" font-weight="700" text-anchor="middle" font-family="-apple-system,PingFangSC,Helvetica,sans-serif" dominant-baseline="auto">开始体验</text></g><g id="btn-secondary"><rect x="24" y="662" width="342" height="52" fill="none" rx="14" stroke="#F0E4EA" stroke-width="1.5"/><text x="195" y="694" font-size="15" fill="#565C7A" font-weight="400" text-anchor="middle" font-family="-apple-system,PingFangSC,Helvetica,sans-serif" dominant-baseline="auto">已有账号？跳过</text></g><text x="195" y="744" font-size="12" fill="#9CA3AF" font-weight="400" text-anchor="middle" font-family="-apple-system,PingFangSC,Helvetica,sans-serif" dominant-baseline="auto">首次订阅立送50万条消息</text></g>
</svg>