<?xml version="1.0" encoding="UTF-8"?>
<!-- AI情感陪伴App · 02 角色选择 · 390x844px -->
<svg width="390" height="844" viewBox="0 0 390 844"
     xmlns="http://www.w3.org/2000/svg">
  <title>02 角色选择</title>
<rect x="0" y="0" width="390" height="844" fill="#FFF8FA" rx="0" stroke="none" stroke-width="1"/>
<g id="status-bar"><rect x="0" y="0" width="390" height="44" fill="#FFF8FA" rx="0" stroke="none" stroke-width="1"/><text x="20" y="30" font-size="15" fill="#1A1A2E" font-weight="700" text-anchor="start" font-family="-apple-system,PingFangSC,Helvetica,sans-serif" dominant-baseline="auto">9:41</text><path transform="translate(310,10)" d="M1.5 8.5a10 10 0 0 1 11.5 0M4 11.5a6 6 0 0 1 6.5 0M7 14a2 2 0 0 1 2.5 0" fill="none" stroke="#1A1A2E" stroke-width="1.5" stroke-linecap="round" stroke-linejoin="round"/><circle cx="316" cy="31" r="3" fill="#1A1A2E" stroke="none" stroke-width="1"/><rect x="332" y="19" width="22" height="11" fill="none" rx="2" stroke="#1A1A2E" stroke-width="1.5"/><rect x="354" y="21" width="2.5" height="7" fill="#1A1A2E" rx="1" stroke="none" stroke-width="1"/><rect x="333.5" y="20.5" width="15" height="8" fill="#1A1A2E" rx="1.5" stroke="none" stroke-width="1"/></g>
<g id="nav-bar"><rect x="0" y="44" width="390" height="50" fill="#FDFAFA" rx="0" stroke="none" stroke-width="1"/><line x1="0" y1="94" x2="390" y2="94" stroke="#F0E4EA" stroke-width="1"/><g transform="translate(14,58) scale(0.9166666666666666)"><path d="M15 18l-6-6 6-6" fill="none" stroke="#FF6B9D" stroke-width="1.964" stroke-linecap="round" stroke-linejoin="round"/></g><text x="195" y="77" font-size="17" fill="#1A1A2E" font-weight="700" text-anchor="middle" font-family="-apple-system,PingFangSC,Helvetica,sans-serif" dominant-baseline="auto">选择她</text></g>
<text x="24" y="122" font-size="22" fill="#1A1A2E" font-weight="700" text-anchor="start" font-family="-apple-system,PingFangSC,Helvetica,sans-serif" dominant-baseline="auto">找到那个对的她</text><text x="24" y="148" font-size="14" fill="#9CA3AF" font-weight="400" text-anchor="start" font-family="-apple-system,PingFangSC,Helvetica,sans-serif" dominant-baseline="auto">选择一位专属陪伴你的伴侣</text>
<g id="card-a">
      <rect x="24" y="170" width="342" height="180" fill="#FF6B9D" rx="22" stroke="none" stroke-width="1"/>
      <rect x="26" y="172" width="338" height="176" fill="#FFFFFF" rx="20" stroke="none" stroke-width="1"/>
      <rect x="32" y="178" width="104" height="164" fill="#FFE0EC" rx="14" stroke="none" stroke-width="1"/>
      <circle cx="84" cy="250" r="38" fill="#FF6B9D" stroke="none" stroke-width="1" opacity="0.22"/>
      <text x="84" y="255" font-size="11" fill="#9CA3AF" font-weight="400" text-anchor="middle" font-family="-apple-system,PingFangSC,Helvetica,sans-serif" dominant-baseline="auto">角色A立绘</text>
      <text x="152" y="202" font-size="18" fill="#1A1A2E" font-weight="700" text-anchor="start" font-family="-apple-system,PingFangSC,Helvetica,sans-serif" dominant-baseline="auto">角色A</text>
      <text x="152" y="226" font-size="14" fill="#9CA3AF" font-weight="400" text-anchor="start" font-family="-apple-system,PingFangSC,Helvetica,sans-serif" dominant-baseline="auto">温柔治愈型</text>
      <rect x="152" y="242" width="38" height="24" fill="#FFE0EC" rx="12" stroke="none" stroke-width="1"/><text x="171" y="258" font-size="11" fill="#FF6B9D" font-weight="400" text-anchor="middle" font-family="-apple-system,PingFangSC,Helvetica,sans-serif" dominant-baseline="auto">温柔</text><rect x="198" y="242" width="38" height="24" fill="#FFE0EC" rx="12" stroke="none" stroke-width="1"/><text x="217" y="258" font-size="11" fill="#FF6B9D" font-weight="400" text-anchor="middle" font-family="-apple-system,PingFangSC,Helvetica,sans-serif" dominant-baseline="auto">贴心</text><rect x="244" y="242" width="38" height="24" fill="#FFE0EC" rx="12" stroke="none" stroke-width="1"/><text x="263" y="258" font-size="11" fill="#FF6B9D" font-weight="400" text-anchor="middle" font-family="-apple-system,PingFangSC,Helvetica,sans-serif" dominant-baseline="auto">包容</text>
      <circle cx="354" cy="188" r="14" fill="#FF6B9D" stroke="none" stroke-width="1"/>
      <g transform="translate(346,182) scale(0.583)"><path d="M20 6L9 17l-5-5" fill="none" stroke="#FFFFFF" stroke-width="3.086" stroke-linecap="round" stroke-linejoin="round"/></g>
    </g>
<g id="card-b">
      <rect x="25" y="367" width="342" height="180" fill="rgba(0,0,0,0.04)" rx="16" stroke="none" stroke-width="1"/><rect x="24" y="366" width="342" height="180" fill="#FFFFFF" rx="16" stroke="#F0E4EA" stroke-width="1"/>
      <rect x="32" y="374" width="104" height="160" fill="#FFE0EC" rx="14" stroke="none" stroke-width="1" opacity="0.5"/>
      <circle cx="84" cy="448" r="36" fill="#FF6B9D" stroke="none" stroke-width="1" opacity="0.15"/>
      <text x="84" y="453" font-size="11" fill="#9CA3AF" font-weight="400" text-anchor="middle" font-family="-apple-system,PingFangSC,Helvetica,sans-serif" dominant-baseline="auto">角色B立绘</text>
      <text x="152" y="394" font-size="18" fill="#1A1A2E" font-weight="700" text-anchor="start" font-family="-apple-system,PingFangSC,Helvetica,sans-serif" dominant-baseline="auto">角色B</text>
      <text x="152" y="418" font-size="14" fill="#9CA3AF" font-weight="400" text-anchor="start" font-family="-apple-system,PingFangSC,Helvetica,sans-serif" dominant-baseline="auto">傲娇腹黑型</text>
      <rect x="152" y="434" width="38" height="24" fill="#FFE0EC" rx="12" stroke="none" stroke-width="1"/><text x="171" y="450" font-size="11" fill="#FF6B9D" font-weight="400" text-anchor="middle" font-family="-apple-system,PingFangSC,Helvetica,sans-serif" dominant-baseline="auto">傲娇</text><rect x="198" y="434" width="50" height="24" fill="#FFE0EC" rx="12" stroke="none" stroke-width="1"/><text x="223" y="450" font-size="11" fill="#FF6B9D" font-weight="400" text-anchor="middle" font-family="-apple-system,PingFangSC,Helvetica,sans-serif" dominant-baseline="auto">嘴硬心软</text><rect x="256" y="434" width="50" height="24" fill="#FFE0EC" rx="12" stroke="none" stroke-width="1"/><text x="281" y="450" font-size="11" fill="#FF6B9D" font-weight="400" text-anchor="middle" font-family="-apple-system,PingFangSC,Helvetica,sans-serif" dominant-baseline="auto">反差萌</text>
    </g>
<g><rect x="24" y="564" width="342" height="52" fill="#FF6B9D" rx="14" stroke="none" stroke-width="1"/><text x="195" y="596" font-size="16" fill="#FFFFFF" font-weight="700" text-anchor="middle" font-family="-apple-system,PingFangSC,Helvetica,sans-serif" dominant-baseline="auto">选择她，开始</text></g>
</svg>