<?xml version="1.0" encoding="UTF-8"?>
<!-- AI情感陪伴App · 02 角色选择 · 390x844px · 可直接导入Figma -->
<svg width="390" height="844" viewBox="0 0 390 844"
     xmlns="http://www.w3.org/2000/svg"
     xmlns:xlink="http://www.w3.org/1999/xlink">
  <title>02 角色选择</title>
  <desc>AI情感陪伴App 设计稿 - 02 角色选择 - 导入Figma后所有元素均可编辑</desc>
  <g id="bg"><rect x="0" y="0" width="390" height="844" fill="#FFF8FA" rx="0" stroke="none" stroke-width="1"/></g><g id="status-bar"><rect x="0" y="0" width="390" height="44" fill="#FFF8FA" rx="0" stroke="none" stroke-width="1"/><text x="20" y="30" font-size="15" fill="#1A1A2E" font-weight="700" text-anchor="start" font-family="-apple-system,PingFangSC,Helvetica,sans-serif" dominant-baseline="auto">9:41</text><path transform="translate(310,10)" d="M1.5 8.5a10 10 0 0 1 11.5 0M4 11.5a6 6 0 0 1 6.5 0M7 14a2 2 0 0 1 2.5 0" fill="none" stroke="#1A1A2E" stroke-width="1.5" stroke-linecap="round" stroke-linejoin="round"/><circle cx="316" cy="31" r="3" fill="#1A1A2E" stroke="none" stroke-width="1"/><rect x="332" y="19" width="22" height="11" fill="none" rx="2" stroke="#1A1A2E" stroke-width="1.5"/><rect x="354" y="21" width="2.5" height="7" fill="#1A1A2E" rx="1" stroke="none" stroke-width="1"/><rect x="333.5" y="20.5" width="15" height="8" fill="#1A1A2E" rx="1.5" stroke="none" stroke-width="1"/></g><g id="nav-bar"><rect x="0" y="44" width="390" height="50" fill="#FDFAFA" rx="0" stroke="none" stroke-width="1"/><line x1="0" y1="94" x2="390" y2="94" stroke="#F0E4EA" stroke-width="1"/><g transform="translate(14,58) scale(0.9166666666666666)"><path d="M15 18l-6-6 6-6" fill="none" stroke="#FF6B9D" stroke-width="1.9636363636363638" stroke-linecap="round" stroke-linejoin="round"/></g><text x="195" y="77" font-size="17" fill="#1A1A2E" font-weight="700" text-anchor="middle" font-family="-apple-system,PingFangSC,Helvetica,sans-serif" dominant-baseline="auto">选择她</text></g><g id="header"><text x="24" y="122" font-size="22" fill="#1A1A2E" font-weight="700" text-anchor="start" font-family="-apple-system,PingFangSC,Helvetica,sans-serif" dominant-baseline="auto">找到那个对的她</text><text x="24" y="148" font-size="14" fill="#9CA3AF" font-weight="400" text-anchor="start" font-family="-apple-system,PingFangSC,Helvetica,sans-serif" dominant-baseline="auto">选择一位专属陪伴你的伴侣</text></g><g id="card-a-selected"><rect x="24" y="164" width="342" height="196" fill="#FF6B9D" rx="22" stroke="none" stroke-width="1"/><rect x="26" y="166" width="338" height="192" fill="#FFFFFF" rx="20" stroke="none" stroke-width="1"/><rect x="32" y="172" width="104" height="180" fill="#FFE0EC" rx="14" stroke="none" stroke-width="1"/><circle cx="84" cy="242" r="36" fill="#FF6B9D" stroke="none" stroke-width="1" opacity="0.25"/><text x="84" y="247" font-size="11" fill="#9CA3AF" font-weight="400" text-anchor="middle" font-family="-apple-system,PingFangSC,Helvetica,sans-serif" dominant-baseline="auto">角色A立绘</text><text x="152" y="196" font-size="19" fill="#1A1A2E" font-weight="700" text-anchor="start" font-family="-apple-system,PingFangSC,Helvetica,sans-serif" dominant-baseline="auto">角色A</text><text x="152" y="220" font-size="14" fill="#9CA3AF" font-weight="400" text-anchor="start" font-family="-apple-system,PingFangSC,Helvetica,sans-serif" dominant-baseline="auto">温柔治愈型</text><text x="152" y="240" font-size="12" fill="#9CA3AF" font-weight="400" text-anchor="start" font-family="-apple-system,PingFangSC,Helvetica,sans-serif" dominant-baseline="auto">声线：清澈温柔</text><g id="pill"><rect x="152" y="254" width="38" height="24" fill="#FFE0EC" rx="12" stroke="none" stroke-width="1"/><text x="171" y="270" font-size="11" fill="#FF6B9D" font-weight="400" text-anchor="middle" font-family="-apple-system,PingFangSC,Helvetica,sans-serif" dominant-baseline="auto">温柔</text></g><g id="pill"><rect x="204" y="254" width="38" height="24" fill="#FFE0EC" rx="12" stroke="none" stroke-width="1"/><text x="223" y="270" font-size="11" fill="#FF6B9D" font-weight="400" text-anchor="middle" font-family="-apple-system,PingFangSC,Helvetica,sans-serif" dominant-baseline="auto">贴心</text></g><g id="pill"><rect x="252" y="254" width="38" height="24" fill="#FFE0EC" rx="12" stroke="none" stroke-width="1"/><text x="271" y="270" font-size="11" fill="#FF6B9D" font-weight="400" text-anchor="middle" font-family="-apple-system,PingFangSC,Helvetica,sans-serif" dominant-baseline="auto">包容</text></g><circle cx="354" cy="182" r="14" fill="#FF6B9D" stroke="none" stroke-width="1"/><g transform="translate(346,176) scale(0.5833333333333334)"><path d="M20 6L9 17l-5-5" fill="none" stroke="#FFFFFF" stroke-width="3.0857142857142854" stroke-linecap="round" stroke-linejoin="round"/></g></g><g id="card-b"><g id="card"><rect x="25" y="376" width="342" height="192" fill="rgba(0,0,0,0.04)" rx="16" stroke="none" stroke-width="1"/><rect x="24" y="374" width="342" height="192" fill="#FFFFFF" rx="16" stroke="#F0E4EA" stroke-width="1"/></g><rect x="32" y="382" width="104" height="174" fill="#FFE0EC" rx="14" stroke="none" stroke-width="1" opacity="0.5"/><circle cx="84" cy="448" r="36" fill="#FF6B9D" stroke="none" stroke-width="1" opacity="0.15"/><text x="84" y="453" font-size="11" fill="#9CA3AF" font-weight="400" text-anchor="middle" font-family="-apple-system,PingFangSC,Helvetica,sans-serif" dominant-baseline="auto">角色B立绘</text><text x="152" y="406" font-size="19" fill="#1A1A2E" font-weight="700" text-anchor="start" font-family="-apple-system,PingFangSC,Helvetica,sans-serif" dominant-baseline="auto">角色B</text><text x="152" y="430" font-size="14" fill="#9CA3AF" font-weight="400" text-anchor="start" font-family="-apple-system,PingFangSC,Helvetica,sans-serif" dominant-baseline="auto">傲娇腹黑型</text><text x="152" y="450" font-size="12" fill="#9CA3AF" font-weight="400" text-anchor="start" font-family="-apple-system,PingFangSC,Helvetica,sans-serif" dominant-baseline="auto">声线：低冷磁性</text><g id="pill"><rect x="152" y="464" width="38" height="24" fill="#FFE0EC" rx="12" stroke="none" stroke-width="1"/><text x="171" y="480" font-size="11" fill="#FF6B9D" font-weight="400" text-anchor="middle" font-family="-apple-system,PingFangSC,Helvetica,sans-serif" dominant-baseline="auto">傲娇</text></g><g id="pill"><rect x="200" y="464" width="38" height="24" fill="#FFE0EC" rx="12" stroke="none" stroke-width="1"/><text x="219" y="480" font-size="11" fill="#FF6B9D" font-weight="400" text-anchor="middle" font-family="-apple-system,PingFangSC,Helvetica,sans-serif" dominant-baseline="auto">腹黑</text></g><g id="pill"><rect x="252" y="464" width="49" height="24" fill="#FFE0EC" rx="12" stroke="none" stroke-width="1"/><text x="276" y="480" font-size="11" fill="#FF6B9D" font-weight="400" text-anchor="middle" font-family="-apple-system,PingFangSC,Helvetica,sans-serif" dominant-baseline="auto">反差萌</text></g></g><g id="card-more"><rect x="24" y="580" width="342" height="74" fill="none" rx="16" stroke="#F0E4EA" stroke-width="1.5"/><g transform="translate(159,596) scale(0.9166666666666666)"><path d="M19 11H5a2 2 0 0 0-2 2v7a2 2 0 0 0 2 2h14a2 2 0 0 0 2-2v-7a2 2 0 0 0-2-2zM7 11V7a5 5 0 0 1 10 0v4" fill="none" stroke="#9CA3AF" stroke-width="1.9636363636363638" stroke-linecap="round" stroke-linejoin="round"/></g><text x="195" y="622" font-size="14" fill="#9CA3AF" font-weight="400" text-anchor="middle" font-family="-apple-system,PingFangSC,Helvetica,sans-serif" dominant-baseline="auto">+ 更多角色（会员解锁）</text></g><g id="cta"><g id="btn-primary"><rect x="24" y="672" width="342" height="52" fill="#FF6B9D" rx="14" stroke="none" stroke-width="1"/><text x="195" y="704" font-size="16" fill="#FFFFFF" font-weight="700" text-anchor="middle" font-family="-apple-system,PingFangSC,Helvetica,sans-serif" dominant-baseline="auto">选择她，开始</text></g></g>
</svg>