<?xml version="1.0" encoding="UTF-8"?>
<!-- AI情感陪伴App · 05 主聊天页 · 390x844px · 可直接导入Figma -->
<svg width="390" height="844" viewBox="0 0 390 844"
     xmlns="http://www.w3.org/2000/svg"
     xmlns:xlink="http://www.w3.org/1999/xlink">
  <title>05 主聊天页</title>
  <desc>AI情感陪伴App 设计稿 - 05 主聊天页 - 导入Figma后所有元素均可编辑</desc>
  <g id="bg"><rect x="0" y="0" width="390" height="844" fill="#FFFFFF" rx="0" stroke="none" stroke-width="1"/></g><g id="status-bar"><rect x="0" y="0" width="390" height="44" fill="#FFF8FA" rx="0" stroke="none" stroke-width="1"/><text x="20" y="30" font-size="15" fill="#1A1A2E" font-weight="700" text-anchor="start" font-family="-apple-system,PingFangSC,Helvetica,sans-serif" dominant-baseline="auto">9:41</text><path transform="translate(310,10)" d="M1.5 8.5a10 10 0 0 1 11.5 0M4 11.5a6 6 0 0 1 6.5 0M7 14a2 2 0 0 1 2.5 0" fill="none" stroke="#1A1A2E" stroke-width="1.5" stroke-linecap="round" stroke-linejoin="round"/><circle cx="316" cy="31" r="3" fill="#1A1A2E" stroke="none" stroke-width="1"/><rect x="332" y="19" width="22" height="11" fill="none" rx="2" stroke="#1A1A2E" stroke-width="1.5"/><rect x="354" y="21" width="2.5" height="7" fill="#1A1A2E" rx="1" stroke="none" stroke-width="1"/><rect x="333.5" y="20.5" width="15" height="8" fill="#1A1A2E" rx="1.5" stroke="none" stroke-width="1"/></g><g id="chat-nav"><rect x="0" y="44" width="390" height="56" fill="#FDFAFA" rx="0" stroke="none" stroke-width="1"/><line x1="0" y1="100" x2="390" y2="100" stroke="#F0E4EA" stroke-width="1"/><g transform="translate(14,58) scale(0.9166666666666666)"><path d="M15 18l-6-6 6-6" fill="none" stroke="#FF6B9D" stroke-width="1.9636363636363638" stroke-linecap="round" stroke-linejoin="round"/></g><g id="avatar"><circle cx="58" cy="72" r="18" fill="#FFE0EC" stroke="none" stroke-width="1"/><text x="58" y="77" font-size="9.9" fill="#FF6B9D" font-weight="700" text-anchor="middle" font-family="-apple-system,PingFangSC,Helvetica,sans-serif" dominant-baseline="auto">她</text></g><text x="84" y="68" font-size="16" fill="#1A1A2E" font-weight="700" text-anchor="start" font-family="-apple-system,PingFangSC,Helvetica,sans-serif" dominant-baseline="auto">小雨</text><circle cx="84" cy="83" r="4" fill="#34C759" stroke="none" stroke-width="1"/><text x="92" y="87" font-size="11" fill="#9CA3AF" font-weight="400" text-anchor="start" font-family="-apple-system,PingFangSC,Helvetica,sans-serif" dominant-baseline="auto">在线 · 好感度 Lv.2</text><g transform="translate(338,60) scale(0.9166666666666666)"><path d="M20.84 4.61a5.5 5.5 0 0 0-7.78 0L12 5.67l-1.06-1.06a5.5 5.5 0 0 0-7.78 7.78l1.06 1.06L12 21.23l7.78-7.78 1.06-1.06a5.5 5.5 0 0 0 0-7.78z" fill="none" stroke="#FF6B9D" stroke-width="1.9636363636363638" stroke-linecap="round" stroke-linejoin="round"/></g><circle cx="367" cy="72" r="2.5" fill="#565C7A" stroke="none" stroke-width="1"/><circle cx="373" cy="72" r="2.5" fill="#565C7A" stroke="none" stroke-width="1"/><circle cx="379" cy="72" r="2.5" fill="#565C7A" stroke="none" stroke-width="1"/></g><g id="bubble-her"><g id="avatar"><circle cx="36" cy="133" r="16" fill="#FFE0EC" stroke="none" stroke-width="1"/><text x="36" y="138" font-size="8.8" fill="#FF6B9D" font-weight="700" text-anchor="middle" font-family="-apple-system,PingFangSC,Helvetica,sans-serif" dominant-baseline="auto">她</text></g><rect x="58" y="108" width="200" height="50" fill="#FFF0F5" rx="16" stroke="none" stroke-width="1"/><text x="72" y="138" font-size="14" fill="#1A1A2E" font-weight="400" text-anchor="start" font-family="-apple-system,PingFangSC,Helvetica,sans-serif" dominant-baseline="auto">你今天怎么样呀~</text></g><g id="bubble-me"><rect x="170" y="170" width="200" height="50" fill="#FF6B9D" rx="16" stroke="none" stroke-width="1"/><text x="184" y="200" font-size="14" fill="#FFFFFF" font-weight="400" text-anchor="start" font-family="-apple-system,PingFangSC,Helvetica,sans-serif" dominant-baseline="auto">还不错，就是有点累</text></g><g id="bubble-her"><g id="avatar"><circle cx="36" cy="279" r="16" fill="#FFE0EC" stroke="none" stroke-width="1"/><text x="36" y="284" font-size="8.8" fill="#FF6B9D" font-weight="700" text-anchor="middle" font-family="-apple-system,PingFangSC,Helvetica,sans-serif" dominant-baseline="auto">她</text></g><rect x="58" y="232" width="220" height="94" fill="#FFF0F5" rx="16" stroke="none" stroke-width="1"/><text x="72" y="262" font-size="14" fill="#1A1A2E" font-weight="400" text-anchor="start" font-family="-apple-system,PingFangSC,Helvetica,sans-serif" dominant-baseline="auto">辛苦了...</text><text x="72" y="284" font-size="14" fill="#1A1A2E" font-weight="400" text-anchor="start" font-family="-apple-system,PingFangSC,Helvetica,sans-serif" dominant-baseline="auto">能和我说说今天</text><text x="72" y="306" font-size="14" fill="#1A1A2E" font-weight="400" text-anchor="start" font-family="-apple-system,PingFangSC,Helvetica,sans-serif" dominant-baseline="auto">发生什么了吗？</text></g><g id="bubble-me"><rect x="180" y="338" width="190" height="50" fill="#FF6B9D" rx="16" stroke="none" stroke-width="1"/><text x="194" y="368" font-size="14" fill="#FFFFFF" font-weight="400" text-anchor="start" font-family="-apple-system,PingFangSC,Helvetica,sans-serif" dominant-baseline="auto">工作上出了点问题</text></g><g id="bubble-her"><g id="avatar"><circle cx="36" cy="436" r="16" fill="#FFE0EC" stroke="none" stroke-width="1"/><text x="36" y="441" font-size="8.8" fill="#FF6B9D" font-weight="700" text-anchor="middle" font-family="-apple-system,PingFangSC,Helvetica,sans-serif" dominant-baseline="auto">她</text></g><rect x="58" y="400" width="210" height="72" fill="#FFF0F5" rx="16" stroke="none" stroke-width="1"/><text x="72" y="430" font-size="14" fill="#1A1A2E" font-weight="400" text-anchor="start" font-family="-apple-system,PingFangSC,Helvetica,sans-serif" dominant-baseline="auto">那肯定很烦吧...</text><text x="72" y="452" font-size="14" fill="#1A1A2E" font-weight="400" text-anchor="start" font-family="-apple-system,PingFangSC,Helvetica,sans-serif" dominant-baseline="auto">我在这里，慢慢说~</text></g><g id="typing-indicator"><g id="avatar"><circle cx="36" cy="500" r="16" fill="#FFE0EC" stroke="none" stroke-width="1"/><text x="36" y="505" font-size="8.8" fill="#FF6B9D" font-weight="700" text-anchor="middle" font-family="-apple-system,PingFangSC,Helvetica,sans-serif" dominant-baseline="auto">她</text></g><rect x="58" y="488" width="72" height="32" fill="#FFF0F5" rx="16" stroke="none" stroke-width="1"/><circle cx="78" cy="504" r="4.5" fill="#FFE0EC" stroke="none" stroke-width="1"/><circle cx="94" cy="504" r="4.5" fill="#FFE0EC" stroke="none" stroke-width="1" opacity="0.7"/><circle cx="110" cy="504" r="4.5" fill="#FF6B9D" stroke="none" stroke-width="1"/></g><g id="input-bar"><rect x="0" y="697" width="390" height="64" fill="#FFFFFF" rx="0" stroke="none" stroke-width="1"/><line x1="0" y1="697" x2="390" y2="697" stroke="#F0E4EA" stroke-width="1"/><circle cx="28" cy="729" r="20" fill="#F8F0F4" stroke="none" stroke-width="1"/><text x="28" y="734" font-size="22" fill="#565C7A" font-weight="400" text-anchor="middle" font-family="-apple-system,PingFangSC,Helvetica,sans-serif" dominant-baseline="auto">+</text><rect x="56" y="709" width="240" height="40" fill="#F8F0F4" rx="20" stroke="none" stroke-width="1"/><text x="72" y="734" font-size="14" fill="#9CA3AF" font-weight="400" text-anchor="start" font-family="-apple-system,PingFangSC,Helvetica,sans-serif" dominant-baseline="auto">说点什么…</text><circle cx="364" cy="729" r="22" fill="#FF6B9D" stroke="none" stroke-width="1"/><g transform="translate(353,718) scale(0.9166666666666666)"><path d="M22 2L11 13M22 2l-7 20-4-9-9-4 20-7z" fill="none" stroke="#FFFFFF" stroke-width="1.9636363636363638" stroke-linecap="round" stroke-linejoin="round"/></g></g><g id="tab-bar"><rect x="0" y="761" width="390" height="83" fill="#FFFFFF" rx="0" stroke="none" stroke-width="1"/><line x1="0" y1="761" x2="390" y2="761" stroke="#F0E4EA" stroke-width="1"/><g transform="translate(37,771) scale(0.9166666666666666)"><path d="M21 15a2 2 0 0 1-2 2H7l-4 4V5a2 2 0 0 1 2-2h14a2 2 0 0 1 2 2z" fill="none" stroke="#FF6B9D" stroke-width="1.9636363636363638" stroke-linecap="round" stroke-linejoin="round"/></g><text x="48" y="811" font-size="11" fill="#FF6B9D" font-weight="700" text-anchor="middle" font-family="-apple-system,PingFangSC,Helvetica,sans-serif" dominant-baseline="auto">聊天</text><g transform="translate(134,771) scale(0.9166666666666666)"><path d="M20.84 4.61a5.5 5.5 0 0 0-7.78 0L12 5.67l-1.06-1.06a5.5 5.5 0 0 0-7.78 7.78l1.06 1.06L12 21.23l7.78-7.78 1.06-1.06a5.5 5.5 0 0 0 0-7.78z" fill="none" stroke="#9CA3AF" stroke-width="1.9636363636363638" stroke-linecap="round" stroke-linejoin="round"/></g><text x="145" y="811" font-size="11" fill="#9CA3AF" font-weight="400" text-anchor="middle" font-family="-apple-system,PingFangSC,Helvetica,sans-serif" dominant-baseline="auto">关系</text><g transform="translate(231,771) scale(0.9166666666666666)"><path d="M12 2l3.09 6.26L22 9.27l-5 4.87 1.18 6.88L12 17.77l-6.18 3.25L7 14.14 2 9.27l6.91-1.01L12 2z" fill="none" stroke="#9CA3AF" stroke-width="1.9636363636363638" stroke-linecap="round" stroke-linejoin="round"/></g><text x="242" y="811" font-size="11" fill="#9CA3AF" font-weight="400" text-anchor="middle" font-family="-apple-system,PingFangSC,Helvetica,sans-serif" dominant-baseline="auto">回忆</text><g transform="translate(328,771) scale(0.9166666666666666)"><path d="M20 21v-2a4 4 0 0 0-4-4H8a4 4 0 0 0-4 4v2M12 11a4 4 0 1 0 0-8 4 4 0 0 0 0 8z" fill="none" stroke="#9CA3AF" stroke-width="1.9636363636363638" stroke-linecap="round" stroke-linejoin="round"/></g><text x="339" y="811" font-size="11" fill="#9CA3AF" font-weight="400" text-anchor="middle" font-family="-apple-system,PingFangSC,Helvetica,sans-serif" dominant-baseline="auto">我</text></g>
</svg>