<?xml version="1.0" encoding="UTF-8"?>
<!-- AI情感陪伴App · 05a 聊天Tab主页 · 390x844px -->
<svg width="390" height="844" viewBox="0 0 390 844"
     xmlns="http://www.w3.org/2000/svg">
  <title>05a 聊天Tab主页</title>
<rect x="0" y="0" width="390" height="844" fill="#FFF8FA" rx="0" stroke="none" stroke-width="1"/>
<g id="status-bar"><rect x="0" y="0" width="390" height="44" fill="#FFF8FA" rx="0" stroke="none" stroke-width="1"/><text x="20" y="30" font-size="15" fill="#1A1A2E" font-weight="700" text-anchor="start" font-family="-apple-system,PingFangSC,Helvetica,sans-serif" dominant-baseline="auto">9:41</text><path transform="translate(310,10)" d="M1.5 8.5a10 10 0 0 1 11.5 0M4 11.5a6 6 0 0 1 6.5 0M7 14a2 2 0 0 1 2.5 0" fill="none" stroke="#1A1A2E" stroke-width="1.5" stroke-linecap="round" stroke-linejoin="round"/><circle cx="316" cy="31" r="3" fill="#1A1A2E" stroke="none" stroke-width="1"/><rect x="332" y="19" width="22" height="11" fill="none" rx="2" stroke="#1A1A2E" stroke-width="1.5"/><rect x="354" y="21" width="2.5" height="7" fill="#1A1A2E" rx="1" stroke="none" stroke-width="1"/><rect x="333.5" y="20.5" width="15" height="8" fill="#1A1A2E" rx="1.5" stroke="none" stroke-width="1"/></g>
<g id="nav-bar"><rect x="0" y="44" width="390" height="50" fill="#FDFAFA" rx="0" stroke="none" stroke-width="1"/><line x1="0" y1="94" x2="390" y2="94" stroke="#F0E4EA" stroke-width="1"/><text x="195" y="77" font-size="17" fill="#1A1A2E" font-weight="700" text-anchor="middle" font-family="-apple-system,PingFangSC,Helvetica,sans-serif" dominant-baseline="auto">聊天</text></g>
<g id="char-card">
      <rect x="24" y="108" width="342" height="128" fill="#FFFFFF" rx="20" stroke="#F0E4EA" stroke-width="1"/>
      <rect x="24" y="108" width="4" height="128" fill="#FF6B9D" rx="4" stroke="none" stroke-width="1"/>
      <circle cx="88" cy="168" r="40" fill="#FFE0EC" stroke="none" stroke-width="1"/>
      <text x="88" y="173" font-size="13" fill="#9CA3AF" font-weight="400" text-anchor="middle" font-family="-apple-system,PingFangSC,Helvetica,sans-serif" dominant-baseline="auto">立绘</text>
      <text x="148" y="138" font-size="20" fill="#1A1A2E" font-weight="700" text-anchor="start" font-family="-apple-system,PingFangSC,Helvetica,sans-serif" dominant-baseline="auto">小雨</text>
      <text x="148" y="162" font-size="13" fill="#9CA3AF" font-weight="400" text-anchor="start" font-family="-apple-system,PingFangSC,Helvetica,sans-serif" dominant-baseline="auto">温柔治愈型  ·  好感度 Lv.2</text>
      <rect x="148" y="174" width="160" height="6" fill="#F0E4EA" rx="3" stroke="none" stroke-width="1"/>
      <rect x="148" y="174" width="56" height="6" fill="#FF6B9D" rx="3" stroke="none" stroke-width="1"/>
      <text x="148" y="196" font-size="11" fill="#9CA3AF" font-weight="400" text-anchor="start" font-family="-apple-system,PingFangSC,Helvetica,sans-serif" dominant-baseline="auto">距 Lv.3 还差 42 次对话</text>
    </g>
<rect x="24" y="252" width="108" height="64" fill="#FFFFFF" rx="16" stroke="#F0E4EA" stroke-width="1"/>
        <text x="78" y="284" font-size="18" fill="#FF6B9D" font-weight="700" text-anchor="middle" font-family="-apple-system,PingFangSC,Helvetica,sans-serif" dominant-baseline="auto">2,847</text>
        <text x="78" y="302" font-size="10" fill="#9CA3AF" font-weight="400" text-anchor="middle" font-family="-apple-system,PingFangSC,Helvetica,sans-serif" dominant-baseline="auto">剩余消息</text><rect x="141" y="252" width="108" height="64" fill="#FFFFFF" rx="16" stroke="#F0E4EA" stroke-width="1"/>
        <text x="195" y="284" font-size="18" fill="#FF6B9D" font-weight="700" text-anchor="middle" font-family="-apple-system,PingFangSC,Helvetica,sans-serif" dominant-baseline="auto">7</text>
        <text x="195" y="302" font-size="10" fill="#9CA3AF" font-weight="400" text-anchor="middle" font-family="-apple-system,PingFangSC,Helvetica,sans-serif" dominant-baseline="auto">相识天数</text><rect x="258" y="252" width="108" height="64" fill="#FFFFFF" rx="16" stroke="#F0E4EA" stroke-width="1"/>
        <text x="312" y="284" font-size="18" fill="#34C759" font-weight="700" text-anchor="middle" font-family="-apple-system,PingFangSC,Helvetica,sans-serif" dominant-baseline="auto">已问候</text>
        <text x="312" y="302" font-size="10" fill="#9CA3AF" font-weight="400" text-anchor="middle" font-family="-apple-system,PingFangSC,Helvetica,sans-serif" dominant-baseline="auto">今日问候</text>
<g id="last-msg">
      <rect x="25" y="335" width="342" height="72" fill="rgba(0,0,0,0.04)" rx="16" stroke="none" stroke-width="1"/><rect x="24" y="334" width="342" height="72" fill="#FFFFFF" rx="16" stroke="#F0E4EA" stroke-width="1"/>
      <circle cx="44" cy="368" r="14" fill="#FFE0EC" stroke="none" stroke-width="1"/>
      <text x="44" y="373" font-size="10" fill="#FF6B9D" font-weight="700" text-anchor="middle" font-family="-apple-system,PingFangSC,Helvetica,sans-serif" dominant-baseline="auto">她</text>
      <text x="68" y="352" font-size="11" fill="#9CA3AF" font-weight="400" text-anchor="start" font-family="-apple-system,PingFangSC,Helvetica,sans-serif" dominant-baseline="auto">上次对话 · 今天 22:30</text>
      <text x="68" y="372" font-size="13" fill="#1A1A2E" font-weight="400" text-anchor="start" font-family="-apple-system,PingFangSC,Helvetica,sans-serif" dominant-baseline="auto">"那肯定很烦吧…我在这里，慢慢说～"</text>
    </g>
<g><rect x="24" y="424" width="342" height="52" fill="#FF6B9D" rx="14" stroke="none" stroke-width="1"/><text x="195" y="456" font-size="16" fill="#FFFFFF" font-weight="700" text-anchor="middle" font-family="-apple-system,PingFangSC,Helvetica,sans-serif" dominant-baseline="auto">和她聊天</text></g>
<g><rect x="24" y="488" width="342" height="52" fill="none" rx="14" stroke="#F0E4EA" stroke-width="1.5"/><text x="195" y="520" font-size="15" fill="#565C7A" font-weight="400" text-anchor="middle" font-family="-apple-system,PingFangSC,Helvetica,sans-serif" dominant-baseline="auto">查看今日问候</text></g>
<g id="tab-bar"><rect x="0" y="761" width="390" height="83" fill="#FFFFFF" rx="0" stroke="none" stroke-width="1"/><line x1="0" y1="761" x2="390" y2="761" stroke="#F0E4EA" stroke-width="1"/><g transform="translate(37,771) scale(0.917)"><path d="M21 15a2 2 0 0 1-2 2H7l-4 4V5a2 2 0 0 1 2-2h14a2 2 0 0 1 2 2z" fill="none" stroke="#FF6B9D" stroke-width="1.964" stroke-linecap="round" stroke-linejoin="round"/></g><text x="48" y="811" font-size="11" fill="#FF6B9D" font-weight="700" text-anchor="middle" font-family="-apple-system,PingFangSC,Helvetica,sans-serif" dominant-baseline="auto">聊天</text><g transform="translate(134,771) scale(0.917)"><path d="M20.84 4.61a5.5 5.5 0 0 0-7.78 0L12 5.67l-1.06-1.06a5.5 5.5 0 0 0-7.78 7.78l1.06 1.06L12 21.23l7.78-7.78 1.06-1.06a5.5 5.5 0 0 0 0-7.78z" fill="none" stroke="#9CA3AF" stroke-width="1.964" stroke-linecap="round" stroke-linejoin="round"/></g><text x="145" y="811" font-size="11" fill="#9CA3AF" font-weight="400" text-anchor="middle" font-family="-apple-system,PingFangSC,Helvetica,sans-serif" dominant-baseline="auto">关系</text><g transform="translate(231,771) scale(0.917)"><path d="M12 2l3.09 6.26L22 9.27l-5 4.87 1.18 6.88L12 17.77l-6.18 3.25L7 14.14 2 9.27l6.91-1.01L12 2z" fill="none" stroke="#9CA3AF" stroke-width="1.964" stroke-linecap="round" stroke-linejoin="round"/></g><text x="242" y="811" font-size="11" fill="#9CA3AF" font-weight="400" text-anchor="middle" font-family="-apple-system,PingFangSC,Helvetica,sans-serif" dominant-baseline="auto">回忆</text><g transform="translate(328,771) scale(0.917)"><path d="M20 21v-2a4 4 0 0 0-4-4H8a4 4 0 0 0-4 4v2M12 11a4 4 0 1 0 0-8 4 4 0 0 0 0 8z" fill="none" stroke="#9CA3AF" stroke-width="1.964" stroke-linecap="round" stroke-linejoin="round"/></g><text x="339" y="811" font-size="11" fill="#9CA3AF" font-weight="400" text-anchor="middle" font-family="-apple-system,PingFangSC,Helvetica,sans-serif" dominant-baseline="auto">我</text></g>
</svg>