<?xml version="1.0" encoding="UTF-8"?>
<!-- AI情感陪伴App · 06 角色状态 · 390x844px · 可直接导入Figma -->
<svg width="390" height="844" viewBox="0 0 390 844"
     xmlns="http://www.w3.org/2000/svg"
     xmlns:xlink="http://www.w3.org/1999/xlink">
  <title>06 角色状态</title>
  <desc>AI情感陪伴App 设计稿 - 06 角色状态 - 导入Figma后所有元素均可编辑</desc>
  <g id="bg"><rect x="0" y="0" width="390" height="844" fill="#FFF8FA" rx="0" stroke="none" stroke-width="1"/></g><g id="status-bar"><rect x="0" y="0" width="390" height="44" fill="#FFF8FA" rx="0" stroke="none" stroke-width="1"/><text x="20" y="30" font-size="15" fill="#1A1A2E" font-weight="700" text-anchor="start" font-family="-apple-system,PingFangSC,Helvetica,sans-serif" dominant-baseline="auto">9:41</text><path transform="translate(310,10)" d="M1.5 8.5a10 10 0 0 1 11.5 0M4 11.5a6 6 0 0 1 6.5 0M7 14a2 2 0 0 1 2.5 0" fill="none" stroke="#1A1A2E" stroke-width="1.5" stroke-linecap="round" stroke-linejoin="round"/><circle cx="316" cy="31" r="3" fill="#1A1A2E" stroke="none" stroke-width="1"/><rect x="332" y="19" width="22" height="11" fill="none" rx="2" stroke="#1A1A2E" stroke-width="1.5"/><rect x="354" y="21" width="2.5" height="7" fill="#1A1A2E" rx="1" stroke="none" stroke-width="1"/><rect x="333.5" y="20.5" width="15" height="8" fill="#1A1A2E" rx="1.5" stroke="none" stroke-width="1"/></g><g id="nav-bar"><rect x="0" y="44" width="390" height="50" fill="#FDFAFA" rx="0" stroke="none" stroke-width="1"/><line x1="0" y1="94" x2="390" y2="94" stroke="#F0E4EA" stroke-width="1"/><g transform="translate(14,58) scale(0.9166666666666666)"><path d="M15 18l-6-6 6-6" fill="none" stroke="#FF6B9D" stroke-width="1.9636363636363638" stroke-linecap="round" stroke-linejoin="round"/></g><text x="195" y="77" font-size="17" fill="#1A1A2E" font-weight="700" text-anchor="middle" font-family="-apple-system,PingFangSC,Helvetica,sans-serif" dominant-baseline="auto">我们的故事</text></g><g id="char-info"><g id="avatar"><circle cx="52" cy="130" r="32" fill="#FFE0EC" stroke="none" stroke-width="1"/><text x="52" y="135" font-size="17.6" fill="#FF6B9D" font-weight="700" text-anchor="middle" font-family="-apple-system,PingFangSC,Helvetica,sans-serif" dominant-baseline="auto">她</text></g><text x="96" y="118" font-size="20" fill="#1A1A2E" font-weight="700" text-anchor="start" font-family="-apple-system,PingFangSC,Helvetica,sans-serif" dominant-baseline="auto">小雨</text><text x="96" y="140" font-size="13" fill="#9CA3AF" font-weight="400" text-anchor="start" font-family="-apple-system,PingFangSC,Helvetica,sans-serif" dominant-baseline="auto">温柔治愈型</text><text x="96" y="158" font-size="12" fill="#9CA3AF" font-weight="400" text-anchor="start" font-family="-apple-system,PingFangSC,Helvetica,sans-serif" dominant-baseline="auto">相识第 7 天</text></g><g id="relation-progress"><text x="24" y="275" font-size="15" fill="#1A1A2E" font-weight="700" text-anchor="start" font-family="-apple-system,PingFangSC,Helvetica,sans-serif" dominant-baseline="auto">关系进度</text><rect x="24" y="296" width="52" height="8" fill="#FF6B9D" rx="4" stroke="none" stroke-width="1"/><text x="50" y="316" font-size="10" fill="#FF6B9D" font-weight="400" text-anchor="middle" font-family="-apple-system,PingFangSC,Helvetica,sans-serif" dominant-baseline="auto">初识</text><rect x="82" y="296" width="52" height="8" fill="#FF6B9D" rx="4" stroke="none" stroke-width="1"/><text x="108" y="316" font-size="10" fill="#FF6B9D" font-weight="400" text-anchor="middle" font-family="-apple-system,PingFangSC,Helvetica,sans-serif" dominant-baseline="auto">熟识</text><rect x="140" y="296" width="52" height="8" fill="#FFE0EC" rx="4" stroke="none" stroke-width="1"/><text x="166" y="316" font-size="10" fill="#9CA3AF" font-weight="400" text-anchor="middle" font-family="-apple-system,PingFangSC,Helvetica,sans-serif" dominant-baseline="auto">暧昧</text><rect x="198" y="296" width="52" height="8" fill="#FFE0EC" rx="4" stroke="none" stroke-width="1"/><text x="224" y="316" font-size="10" fill="#9CA3AF" font-weight="400" text-anchor="middle" font-family="-apple-system,PingFangSC,Helvetica,sans-serif" dominant-baseline="auto">告白</text><rect x="256" y="296" width="52" height="8" fill="#FFE0EC" rx="4" stroke="none" stroke-width="1"/><text x="282" y="316" font-size="10" fill="#9CA3AF" font-weight="400" text-anchor="middle" font-family="-apple-system,PingFangSC,Helvetica,sans-serif" dominant-baseline="auto">恋人</text><rect x="314" y="296" width="52" height="8" fill="#FFE0EC" rx="4" stroke="none" stroke-width="1"/><text x="340" y="316" font-size="10" fill="#9CA3AF" font-weight="400" text-anchor="middle" font-family="-apple-system,PingFangSC,Helvetica,sans-serif" dominant-baseline="auto">挚爱</text></g><g id="exclusive-names"><g id="card"><rect x="25" y="334" width="342" height="64" fill="rgba(0,0,0,0.04)" rx="12" stroke="none" stroke-width="1"/><rect x="24" y="332" width="342" height="64" fill="#FFFFFF" rx="12" stroke="#F0E4EA" stroke-width="1"/></g><text x="40" y="354" font-size="14" fill="#1A1A2E" font-weight="400" text-anchor="start" font-family="-apple-system,PingFangSC,Helvetica,sans-serif" dominant-baseline="auto">她叫你：宝贝</text><text x="203" y="354" font-size="14" fill="#1A1A2E" font-weight="400" text-anchor="start" font-family="-apple-system,PingFangSC,Helvetica,sans-serif" dominant-baseline="auto">你叫她：小雨</text><line x1="195" y1="340" x2="195" y2="388" stroke="#F0E4EA" stroke-width="1"/></g><g id="anniversary"><g id="card"><rect x="25" y="414" width="342" height="56" fill="rgba(0,0,0,0.04)" rx="12" stroke="none" stroke-width="1"/><rect x="24" y="412" width="342" height="56" fill="#FFFFFF" rx="12" stroke="#F0E4EA" stroke-width="1"/></g><text x="40" y="444" font-size="13" fill="#9CA3AF" font-weight="400" text-anchor="start" font-family="-apple-system,PingFangSC,Helvetica,sans-serif" dominant-baseline="auto">相识纪念日</text><text x="354" y="444" font-size="13" fill="#FF6B9D" font-weight="400" text-anchor="end" font-family="-apple-system,PingFangSC,Helvetica,sans-serif" dominant-baseline="auto">2026.04.22</text></g><line x1="24" y1="480" x2="366" y2="480" stroke="#F0E4EA" stroke-width="1"/><g id="stats"><text x="24" y="504" font-size="15" fill="#1A1A2E" font-weight="700" text-anchor="start" font-family="-apple-system,PingFangSC,Helvetica,sans-serif" dominant-baseline="auto">互动数据</text><g id="list-item"><line x1="24" y1="516" x2="366" y2="516" stroke="#F0E4EA" stroke-width="1"/><text x="24" y="548" font-size="15" fill="#1A1A2E" font-weight="400" text-anchor="start" font-family="-apple-system,PingFangSC,Helvetica,sans-serif" dominant-baseline="auto">对话次数</text><text x="366" y="548" font-size="13" fill="#9CA3AF" font-weight="400" text-anchor="end" font-family="-apple-system,PingFangSC,Helvetica,sans-serif" dominant-baseline="auto">128次</text></g><g id="list-item"><line x1="24" y1="568" x2="366" y2="568" stroke="#F0E4EA" stroke-width="1"/><text x="24" y="600" font-size="15" fill="#1A1A2E" font-weight="400" text-anchor="start" font-family="-apple-system,PingFangSC,Helvetica,sans-serif" dominant-baseline="auto">共同回忆</text><text x="366" y="600" font-size="13" fill="#9CA3AF" font-weight="400" text-anchor="end" font-family="-apple-system,PingFangSC,Helvetica,sans-serif" dominant-baseline="auto">12条</text></g><g id="list-item"><line x1="24" y1="620" x2="366" y2="620" stroke="#F0E4EA" stroke-width="1"/><text x="24" y="652" font-size="15" fill="#1A1A2E" font-weight="400" text-anchor="start" font-family="-apple-system,PingFangSC,Helvetica,sans-serif" dominant-baseline="auto">最近互动</text><text x="366" y="652" font-size="13" fill="#9CA3AF" font-weight="400" text-anchor="end" font-family="-apple-system,PingFangSC,Helvetica,sans-serif" dominant-baseline="auto">今天 22:30</text></g></g><g id="tab-bar"><rect x="0" y="761" width="390" height="83" fill="#FFFFFF" rx="0" stroke="none" stroke-width="1"/><line x1="0" y1="761" x2="390" y2="761" stroke="#F0E4EA" stroke-width="1"/><g transform="translate(37,771) scale(0.9166666666666666)"><path d="M21 15a2 2 0 0 1-2 2H7l-4 4V5a2 2 0 0 1 2-2h14a2 2 0 0 1 2 2z" fill="none" stroke="#9CA3AF" stroke-width="1.9636363636363638" stroke-linecap="round" stroke-linejoin="round"/></g><text x="48" y="811" font-size="11" fill="#9CA3AF" font-weight="400" text-anchor="middle" font-family="-apple-system,PingFangSC,Helvetica,sans-serif" dominant-baseline="auto">聊天</text><g transform="translate(134,771) scale(0.9166666666666666)"><path d="M20.84 4.61a5.5 5.5 0 0 0-7.78 0L12 5.67l-1.06-1.06a5.5 5.5 0 0 0-7.78 7.78l1.06 1.06L12 21.23l7.78-7.78 1.06-1.06a5.5 5.5 0 0 0 0-7.78z" fill="none" stroke="#FF6B9D" stroke-width="1.9636363636363638" stroke-linecap="round" stroke-linejoin="round"/></g><text x="145" y="811" font-size="11" fill="#FF6B9D" font-weight="700" text-anchor="middle" font-family="-apple-system,PingFangSC,Helvetica,sans-serif" dominant-baseline="auto">关系</text><g transform="translate(231,771) scale(0.9166666666666666)"><path d="M12 2l3.09 6.26L22 9.27l-5 4.87 1.18 6.88L12 17.77l-6.18 3.25L7 14.14 2 9.27l6.91-1.01L12 2z" fill="none" stroke="#9CA3AF" stroke-width="1.9636363636363638" stroke-linecap="round" stroke-linejoin="round"/></g><text x="242" y="811" font-size="11" fill="#9CA3AF" font-weight="400" text-anchor="middle" font-family="-apple-system,PingFangSC,Helvetica,sans-serif" dominant-baseline="auto">回忆</text><g transform="translate(328,771) scale(0.9166666666666666)"><path d="M20 21v-2a4 4 0 0 0-4-4H8a4 4 0 0 0-4 4v2M12 11a4 4 0 1 0 0-8 4 4 0 0 0 0 8z" fill="none" stroke="#9CA3AF" stroke-width="1.9636363636363638" stroke-linecap="round" stroke-linejoin="round"/></g><text x="339" y="811" font-size="11" fill="#9CA3AF" font-weight="400" text-anchor="middle" font-family="-apple-system,PingFangSC,Helvetica,sans-serif" dominant-baseline="auto">我</text></g>
</svg>