<?xml version="1.0" encoding="UTF-8"?>
<!-- AI情感陪伴App · 07 每日问候 · 390x844px -->
<svg width="390" height="844" viewBox="0 0 390 844"
     xmlns="http://www.w3.org/2000/svg">
  <title>07 每日问候</title>
<rect x="0" y="0" width="390" height="844" fill="#FFF8FA" rx="0" stroke="none" stroke-width="1"/>
<rect x="0" y="0" width="390" height="310" fill="#FFE0EC" rx="0" stroke="none" stroke-width="1" opacity="0.3"/>
<g id="status-bar"><rect x="0" y="0" width="390" height="44" fill="#FFF8FA" rx="0" stroke="none" stroke-width="1"/><text x="20" y="30" font-size="15" fill="#1A1A2E" font-weight="700" text-anchor="start" font-family="-apple-system,PingFangSC,Helvetica,sans-serif" dominant-baseline="auto">9:41</text><path transform="translate(310,10)" d="M1.5 8.5a10 10 0 0 1 11.5 0M4 11.5a6 6 0 0 1 6.5 0M7 14a2 2 0 0 1 2.5 0" fill="none" stroke="#1A1A2E" stroke-width="1.5" stroke-linecap="round" stroke-linejoin="round"/><circle cx="316" cy="31" r="3" fill="#1A1A2E" stroke="none" stroke-width="1"/><rect x="332" y="19" width="22" height="11" fill="none" rx="2" stroke="#1A1A2E" stroke-width="1.5"/><rect x="354" y="21" width="2.5" height="7" fill="#1A1A2E" rx="1" stroke="none" stroke-width="1"/><rect x="333.5" y="20.5" width="15" height="8" fill="#1A1A2E" rx="1.5" stroke="none" stroke-width="1"/></g>
<text x="195" y="80" font-size="26" fill="#1A1A2E" font-weight="700" text-anchor="middle" font-family="-apple-system,PingFangSC,Helvetica,sans-serif" dominant-baseline="auto">早上好</text><text x="195" y="106" font-size="13" fill="#9CA3AF" font-weight="400" text-anchor="middle" font-family="-apple-system,PingFangSC,Helvetica,sans-serif" dominant-baseline="auto">今日  北京  晴  18°C</text>
<g id="illus">
      <rect x="90" y="128" width="210" height="220" fill="#FFE0EC" rx="24" stroke="none" stroke-width="1"/>
      <circle cx="195" cy="228" r="58" fill="#FF6B9D" stroke="none" stroke-width="1" opacity="0.22"/>
      <text x="195" y="233" font-size="13" fill="#9CA3AF" font-weight="400" text-anchor="middle" font-family="-apple-system,PingFangSC,Helvetica,sans-serif" dominant-baseline="auto">角色立绘（开心态）</text>
    </g>
<g id="msg-card">
      <rect x="25" y="365" width="342" height="100" fill="rgba(0,0,0,0.04)" rx="16" stroke="none" stroke-width="1"/><rect x="24" y="364" width="342" height="100" fill="#FFFFFF" rx="16" stroke="#F0E4EA" stroke-width="1"/>
      <rect x="24" y="364" width="4" height="100" fill="#FF6B9D" rx="4" stroke="none" stroke-width="1"/>
      <text x="40" y="396" font-size="13" fill="#1A1A2E" font-weight="400" text-anchor="start" font-family="-apple-system,PingFangSC,Helvetica,sans-serif" dominant-baseline="auto">"宝贝早安~ 今天天气不错，出门记得开心哦！"</text>
      <text x="40" y="440" font-size="12" fill="#9CA3AF" font-weight="400" text-anchor="start" font-family="-apple-system,PingFangSC,Helvetica,sans-serif" dominant-baseline="auto">— 小雨</text>
    </g>
<g id="quote">
      <rect x="25" y="481" width="342" height="48" fill="rgba(0,0,0,0.04)" rx="16" stroke="none" stroke-width="1"/><rect x="24" y="480" width="342" height="48" fill="#FFFFFF" rx="16" stroke="#F0E4EA" stroke-width="1"/>
      <text x="195" y="510" font-size="13" fill="#565C7A" font-weight="400" text-anchor="middle" font-family="-apple-system,PingFangSC,Helvetica,sans-serif" dominant-baseline="auto">今日一语：你已经很努力了，辛苦了</text>
    </g>
<g><rect x="24" y="546" width="342" height="52" fill="#FF6B9D" rx="14" stroke="none" stroke-width="1"/><text x="195" y="578" font-size="16" fill="#FFFFFF" font-weight="700" text-anchor="middle" font-family="-apple-system,PingFangSC,Helvetica,sans-serif" dominant-baseline="auto">回复她</text></g>
<g><rect x="24" y="610" width="342" height="52" fill="none" rx="14" stroke="#F0E4EA" stroke-width="1.5"/><text x="195" y="642" font-size="15" fill="#565C7A" font-weight="400" text-anchor="middle" font-family="-apple-system,PingFangSC,Helvetica,sans-serif" dominant-baseline="auto">稍后再说</text></g>
<g><rect x="24" y="674" width="342" height="48" fill="none" rx="14" stroke="#F0E4EA" stroke-width="1.5"/><text x="195" y="704" font-size="15" fill="#565C7A" font-weight="400" text-anchor="middle" font-family="-apple-system,PingFangSC,Helvetica,sans-serif" dominant-baseline="auto">记录今日心情</text></g>
</svg>