<?xml version="1.0" encoding="UTF-8"?>
<!-- AI情感陪伴App · 15a 个人中心（未订阅） · 390x844px -->
<svg width="390" height="844" viewBox="0 0 390 844"
     xmlns="http://www.w3.org/2000/svg">
  <title>15a 个人中心（未订阅）</title>
<rect x="0" y="0" width="390" height="844" fill="#FFF8FA" rx="0" stroke="none" stroke-width="1"/>
<rect x="0" y="0" width="390" height="220" fill="#FFE0EC" rx="0" stroke="none" stroke-width="1" opacity="0.5"/>
<g id="status-bar"><rect x="0" y="0" width="390" height="44" fill="#FFF8FA" rx="0" stroke="none" stroke-width="1"/><text x="20" y="30" font-size="15" fill="#1A1A2E" font-weight="700" text-anchor="start" font-family="-apple-system,PingFangSC,Helvetica,sans-serif" dominant-baseline="auto">9:41</text><path transform="translate(310,10)" d="M1.5 8.5a10 10 0 0 1 11.5 0M4 11.5a6 6 0 0 1 6.5 0M7 14a2 2 0 0 1 2.5 0" fill="none" stroke="#1A1A2E" stroke-width="1.5" stroke-linecap="round" stroke-linejoin="round"/><circle cx="316" cy="31" r="3" fill="#1A1A2E" stroke="none" stroke-width="1"/><rect x="332" y="19" width="22" height="11" fill="none" rx="2" stroke="#1A1A2E" stroke-width="1.5"/><rect x="354" y="21" width="2.5" height="7" fill="#1A1A2E" rx="1" stroke="none" stroke-width="1"/><rect x="333.5" y="20.5" width="15" height="8" fill="#1A1A2E" rx="1.5" stroke="none" stroke-width="1"/></g>
<g id="nav-bar"><rect x="0" y="44" width="390" height="50" fill="#FDFAFA" rx="0" stroke="none" stroke-width="1"/><line x1="0" y1="94" x2="390" y2="94" stroke="#F0E4EA" stroke-width="1"/><text x="195" y="77" font-size="17" fill="#1A1A2E" font-weight="700" text-anchor="middle" font-family="-apple-system,PingFangSC,Helvetica,sans-serif" dominant-baseline="auto">我</text></g>
<g id="user-info">
      <circle cx="195" cy="128" r="38" fill="#DDDDDD" stroke="none" stroke-width="1"/>
      <text x="195" y="133" font-size="21" fill="#888888" font-weight="700" text-anchor="middle" font-family="-apple-system,PingFangSC,Helvetica,sans-serif" dominant-baseline="auto">用</text>
      <text x="195" y="178" font-size="18" fill="#1A1A2E" font-weight="700" text-anchor="middle" font-family="-apple-system,PingFangSC,Helvetica,sans-serif" dominant-baseline="auto">用户昵称</text>
      <rect x="157" y="188" width="76" height="24" fill="#EBEBEB" rx="12" stroke="none" stroke-width="1"/>
      <text x="195" y="204" font-size="11" fill="#999999" font-weight="700" text-anchor="middle" font-family="-apple-system,PingFangSC,Helvetica,sans-serif" dominant-baseline="auto">免费用户</text>
    </g>
<g id="stats">
      <rect x="25" y="221" width="342" height="72" fill="rgba(0,0,0,0.04)" rx="16" stroke="none" stroke-width="1"/><rect x="24" y="220" width="342" height="72" fill="#FFFFFF" rx="16" stroke="#F0E4EA" stroke-width="1"/>
      <text x="81" y="252" font-size="22" fill="#FF6B9D" font-weight="700" text-anchor="middle" font-family="-apple-system,PingFangSC,Helvetica,sans-serif" dominant-baseline="auto">12</text>
      <text x="81" y="272" font-size="11" fill="#9CA3AF" font-weight="400" text-anchor="middle" font-family="-apple-system,PingFangSC,Helvetica,sans-serif" dominant-baseline="auto">对话次数</text>
      <line x1="138" y1="234" x2="138" y2="280" stroke="#F0E4EA" stroke-width="1"/>
      <text x="195" y="252" font-size="22" fill="#FF6B9D" font-weight="700" text-anchor="middle" font-family="-apple-system,PingFangSC,Helvetica,sans-serif" dominant-baseline="auto">1</text>
      <text x="195" y="272" font-size="11" fill="#9CA3AF" font-weight="400" text-anchor="middle" font-family="-apple-system,PingFangSC,Helvetica,sans-serif" dominant-baseline="auto">相识天数</text>
      <line x1="252" y1="234" x2="252" y2="280" stroke="#F0E4EA" stroke-width="1"/>
      <text x="309" y="252" font-size="22" fill="#FF6B9D" font-weight="700" text-anchor="middle" font-family="-apple-system,PingFangSC,Helvetica,sans-serif" dominant-baseline="auto">2</text>
      <text x="309" y="272" font-size="11" fill="#9CA3AF" font-weight="400" text-anchor="middle" font-family="-apple-system,PingFangSC,Helvetica,sans-serif" dominant-baseline="auto">精彩回忆</text>
    </g>
<g id="upgrade-banner">
      <rect x="24" y="306" width="342" height="88" fill="#FFF0F5" rx="16" stroke="#FF6B9D" stroke-width="1.5"/>
      <text x="40" y="334" font-size="16" fill="#FF6B9D" font-weight="700" text-anchor="start" font-family="-apple-system,PingFangSC,Helvetica,sans-serif" dominant-baseline="auto">开通会员，解锁更多陪伴</text>
      <text x="40" y="356" font-size="13" fill="#565C7A" font-weight="400" text-anchor="start" font-family="-apple-system,PingFangSC,Helvetica,sans-serif" dominant-baseline="auto">· 无限对话  · 解锁第二角色  · 好感度加速</text>
      <g><rect x="40" y="368" width="302" height="36" fill="#FF6B9D" rx="14" stroke="none" stroke-width="1"/><text x="191" y="392" font-size="14" fill="#FFFFFF" font-weight="700" text-anchor="middle" font-family="-apple-system,PingFangSC,Helvetica,sans-serif" dominant-baseline="auto">立即开通 · 7天免费试用</text></g>
    </g>
<g id="video">
      <rect x="24" y="410" width="342" height="72" fill="#FFE0EC" rx="16" stroke="none" stroke-width="1"/>
      <rect x="24" y="410" width="4" height="72" fill="#FF6B9D" rx="4" stroke="none" stroke-width="1"/>
      <g transform="translate(42,426) scale(0.917)"><path d="M5 3l14 9-14 9V3z" fill="#FF6B9D" stroke="#FF6B9D" stroke-width="1.964" stroke-linecap="round" stroke-linejoin="round"/></g>
      <text x="72" y="434" font-size="16" fill="#1A1A2E" font-weight="700" text-anchor="start" font-family="-apple-system,PingFangSC,Helvetica,sans-serif" dominant-baseline="auto">看视频领免费消息</text>
      <text x="72" y="456" font-size="12" fill="#9CA3AF" font-weight="400" text-anchor="start" font-family="-apple-system,PingFangSC,Helvetica,sans-serif" dominant-baseline="auto">今日已领 0/5 次，每次 +50条</text>
      <rect x="310" y="422" width="56" height="32" fill="#FF6B9D" rx="16" stroke="none" stroke-width="1"/>
      <text x="338" y="442" font-size="12" fill="#FFFFFF" font-weight="700" text-anchor="middle" font-family="-apple-system,PingFangSC,Helvetica,sans-serif" dominant-baseline="auto">去领取</text>
    </g>
<g id="menu">
      <text x="24" y="504" font-size="12" fill="#9CA3AF" font-weight="400" text-anchor="start" font-family="-apple-system,PingFangSC,Helvetica,sans-serif" dominant-baseline="auto">账户</text>
      <line x1="24" y1="512" x2="366" y2="512" stroke="#F0E4EA" stroke-width="1"/><text x="24" y="544" font-size="15" fill="#1A1A2E" font-weight="400" text-anchor="start" font-family="-apple-system,PingFangSC,Helvetica,sans-serif" dominant-baseline="auto">会员状态</text><text x="366" y="544" font-size="13" fill="#FF6B9D" font-weight="400" text-anchor="end" font-family="-apple-system,PingFangSC,Helvetica,sans-serif" dominant-baseline="auto">未订阅 · 立即开通 →</text><g transform="translate(346,528) scale(0.667)"><path d="M9 18l6-6-6-6" fill="none" stroke="#9CA3AF" stroke-width="2.7" stroke-linecap="round" stroke-linejoin="round"/></g>
      <line x1="24" y1="564" x2="366" y2="564" stroke="#F0E4EA" stroke-width="1"/><text x="24" y="596" font-size="15" fill="#1A1A2E" font-weight="400" text-anchor="start" font-family="-apple-system,PingFangSC,Helvetica,sans-serif" dominant-baseline="auto">消息余额</text><text x="366" y="596" font-size="13" fill="#9CA3AF" font-weight="400" text-anchor="end" font-family="-apple-system,PingFangSC,Helvetica,sans-serif" dominant-baseline="auto">50条</text><g transform="translate(346,580) scale(0.667)"><path d="M9 18l6-6-6-6" fill="none" stroke="#9CA3AF" stroke-width="2.7" stroke-linecap="round" stroke-linejoin="round"/></g>
      <text x="24" y="628" font-size="12" fill="#9CA3AF" font-weight="400" text-anchor="start" font-family="-apple-system,PingFangSC,Helvetica,sans-serif" dominant-baseline="auto">功能</text>
      <line x1="24" y1="634" x2="366" y2="634" stroke="#F0E4EA" stroke-width="1"/><text x="24" y="666" font-size="15" fill="#1A1A2E" font-weight="400" text-anchor="start" font-family="-apple-system,PingFangSC,Helvetica,sans-serif" dominant-baseline="auto">情绪日记</text><text x="366" y="666" font-size="13" fill="#9CA3AF" font-weight="400" text-anchor="end" font-family="-apple-system,PingFangSC,Helvetica,sans-serif" dominant-baseline="auto">→</text><g transform="translate(346,650) scale(0.667)"><path d="M9 18l6-6-6-6" fill="none" stroke="#9CA3AF" stroke-width="2.7" stroke-linecap="round" stroke-linejoin="round"/></g>
      <line x1="24" y1="686" x2="366" y2="686" stroke="#F0E4EA" stroke-width="1"/><text x="24" y="718" font-size="15" fill="#1A1A2E" font-weight="400" text-anchor="start" font-family="-apple-system,PingFangSC,Helvetica,sans-serif" dominant-baseline="auto">使用设置</text><text x="366" y="718" font-size="13" fill="#9CA3AF" font-weight="400" text-anchor="end" font-family="-apple-system,PingFangSC,Helvetica,sans-serif" dominant-baseline="auto">→</text><g transform="translate(346,702) scale(0.667)"><path d="M9 18l6-6-6-6" fill="none" stroke="#9CA3AF" stroke-width="2.7" stroke-linecap="round" stroke-linejoin="round"/></g>
      <line x1="24" y1="738" x2="366" y2="738" stroke="#F0E4EA" stroke-width="1"/><text x="24" y="770" font-size="15" fill="#1A1A2E" font-weight="400" text-anchor="start" font-family="-apple-system,PingFangSC,Helvetica,sans-serif" dominant-baseline="auto">意见反馈</text><text x="366" y="770" font-size="13" fill="#9CA3AF" font-weight="400" text-anchor="end" font-family="-apple-system,PingFangSC,Helvetica,sans-serif" dominant-baseline="auto">→</text><g transform="translate(346,754) scale(0.667)"><path d="M9 18l6-6-6-6" fill="none" stroke="#9CA3AF" stroke-width="2.7" stroke-linecap="round" stroke-linejoin="round"/></g>
    </g>
<g id="tab-bar"><rect x="0" y="761" width="390" height="83" fill="#FFFFFF" rx="0" stroke="none" stroke-width="1"/><line x1="0" y1="761" x2="390" y2="761" stroke="#F0E4EA" stroke-width="1"/><g transform="translate(37,771) scale(0.917)"><path d="M21 15a2 2 0 0 1-2 2H7l-4 4V5a2 2 0 0 1 2-2h14a2 2 0 0 1 2 2z" fill="none" stroke="#9CA3AF" stroke-width="1.964" stroke-linecap="round" stroke-linejoin="round"/></g><text x="48" y="811" font-size="11" fill="#9CA3AF" font-weight="400" text-anchor="middle" font-family="-apple-system,PingFangSC,Helvetica,sans-serif" dominant-baseline="auto">聊天</text><g transform="translate(134,771) scale(0.917)"><path d="M20.84 4.61a5.5 5.5 0 0 0-7.78 0L12 5.67l-1.06-1.06a5.5 5.5 0 0 0-7.78 7.78l1.06 1.06L12 21.23l7.78-7.78 1.06-1.06a5.5 5.5 0 0 0 0-7.78z" fill="none" stroke="#9CA3AF" stroke-width="1.964" stroke-linecap="round" stroke-linejoin="round"/></g><text x="145" y="811" font-size="11" fill="#9CA3AF" font-weight="400" text-anchor="middle" font-family="-apple-system,PingFangSC,Helvetica,sans-serif" dominant-baseline="auto">关系</text><g transform="translate(231,771) scale(0.917)"><path d="M12 2l3.09 6.26L22 9.27l-5 4.87 1.18 6.88L12 17.77l-6.18 3.25L7 14.14 2 9.27l6.91-1.01L12 2z" fill="none" stroke="#9CA3AF" stroke-width="1.964" stroke-linecap="round" stroke-linejoin="round"/></g><text x="242" y="811" font-size="11" fill="#9CA3AF" font-weight="400" text-anchor="middle" font-family="-apple-system,PingFangSC,Helvetica,sans-serif" dominant-baseline="auto">回忆</text><g transform="translate(328,771) scale(0.917)"><path d="M20 21v-2a4 4 0 0 0-4-4H8a4 4 0 0 0-4 4v2M12 11a4 4 0 1 0 0-8 4 4 0 0 0 0 8z" fill="none" stroke="#FF6B9D" stroke-width="1.964" stroke-linecap="round" stroke-linejoin="round"/></g><text x="339" y="811" font-size="11" fill="#FF6B9D" font-weight="700" text-anchor="middle" font-family="-apple-system,PingFangSC,Helvetica,sans-serif" dominant-baseline="auto">我</text></g>
</svg>